<svg width="16" height="15" viewBox="0 0 16 15" fill="none" xmlns="http://www.w3.org/2000/svg">
<path fill-rule="evenodd" clip-rule="evenodd" d="M8.70094 2.76016C9.33746 2.12365 10.2008 1.76605 11.1009 1.76605C12.0011 1.76605 12.8644 2.12365 13.5009 2.76016C14.1375 3.39668 14.4951 4.25999 14.4951 5.16016C14.4951 6.06034 14.1375 6.92364 13.5009 7.56016L12.6276 8.4335L7.8276 13.2335L3.0276 8.4335L2.15427 7.56016C1.51775 6.92364 1.16016 6.06034 1.16016 5.16016C1.16016 4.25999 1.51775 3.39668 2.15427 2.76016C2.79079 2.12365 3.65409 1.76605 4.55427 1.76605C5.45444 1.76605 6.31775 2.12365 6.95427 2.76016L7.8276 3.6335L8.70094 2.76016Z" stroke="#E6704B" stroke-width="2" stroke-linecap="round" stroke-linejoin="round"/>
</svg>
